<?xml version="1.0" encoding="iso-8859-1"?>
<!-- Generator: Adobe Illustrator 19.0.0, SVG Export Plug-In . SVG Version: 6.00 Build 0)  -->
<svg version="1.1" id="Capa_1" xmlns="http://www.w3.org/2000/svg" xmlns:xlink="http://www.w3.org/1999/xlink" x="0px" y="0px"
	 viewBox="0 0 512 512" style="enable-background:new 0 0 512 512;" xml:space="preserve">
<polygon style="fill:#57A4FF;" points="69.728,7.5 69.728,56.991 112.686,56.991 112.686,94.991 69.728,94.991 69.728,146.995 
	112.686,146.995 112.686,184.995 69.728,184.995 69.728,237 112.686,237 112.686,275 69.728,275 69.728,327.005 112.686,327.005 
	112.686,365.005 69.728,365.005 69.728,417.01 112.686,417.01 112.686,455.01 69.728,455.01 69.728,504.5 456.562,504.5 
	456.562,7.5 "/>
<g>
	<rect x="308.1" y="404.91" style="fill:#006DF0;" width="37.693" height="37.693"/>
	<rect x="244.07" y="404.91" style="fill:#006DF0;" width="37.693" height="37.693"/>
	<rect x="180.89" y="404.91" style="fill:#006DF0;" width="37.693" height="37.693"/>
	<path style="fill:#006DF0;" d="M404.842,268.747v-47.346h-34.181c-1.462-4.717-3.353-9.244-5.62-13.543l24.177-24.177
		l-33.478-33.478l-24.177,24.177c-4.298-2.268-8.826-4.159-13.543-5.62v-34.181h-47.346v34.181
		c-4.717,1.462-9.244,3.353-13.543,5.62l-24.177-24.177l-33.478,33.478l24.177,24.177c-2.267,4.298-4.158,8.826-5.62,13.543h-34.181
		v47.346h34.181c1.462,4.717,3.353,9.244,5.62,13.543l-24.177,24.177l33.478,33.479l24.177-24.177
		c4.298,2.268,8.826,4.159,13.543,5.62v34.181h47.346v-34.181c4.717-1.462,9.244-3.353,13.543-5.62l24.177,24.177l33.478-33.479
		l-24.177-24.177c2.267-4.298,4.159-8.826,5.62-13.543H404.842z M294.347,279.57c-19.051,0-34.495-15.444-34.495-34.495
		s15.444-34.495,34.495-34.495s34.495,15.444,34.495,34.495C328.842,264.126,313.398,279.57,294.347,279.57z"/>
	<rect x="75.44" y="56.991" style="fill:#006DF0;" width="57.25" height="38"/>
	<rect x="75.44" y="147" style="fill:#006DF0;" width="57.25" height="38"/>
	<rect x="75.44" y="237" style="fill:#006DF0;" width="57.25" height="38"/>
	<rect x="75.44" y="327" style="fill:#006DF0;" width="57.25" height="38"/>
	<rect x="75.44" y="417.01" style="fill:#006DF0;" width="57.25" height="38"/>
</g>
<g>
	<rect x="55.44" y="56.991" style="fill:#FFE477;" width="57.25" height="38"/>
	<rect x="55.44" y="147" style="fill:#FFE477;" width="57.25" height="38"/>
	<rect x="55.44" y="237" style="fill:#FFE477;" width="57.25" height="38"/>
	<rect x="55.44" y="327" style="fill:#FFE477;" width="57.25" height="38"/>
	<rect x="55.44" y="417.01" style="fill:#FFE477;" width="57.25" height="38"/>
</g>
<g>
	<rect x="288.1" y="404.91" style="fill:#FF3F62;" width="37.693" height="37.693"/>
	<rect x="224.07" y="404.91" style="fill:#FF3F62;" width="37.693" height="37.693"/>
	<rect x="160.89" y="404.91" style="fill:#FF3F62;" width="37.693" height="37.693"/>
</g>
<path style="fill:#FF7956;" d="M384.842,268.747v-47.346h-34.181c-1.462-4.717-3.353-9.244-5.62-13.543l24.177-24.177
	l-33.478-33.478l-24.177,24.177c-4.298-2.268-8.826-4.159-13.543-5.62v-34.181h-47.346v34.181c-4.717,1.462-9.244,3.353-13.543,5.62
	l-24.177-24.177l-33.478,33.478l24.177,24.177c-2.267,4.298-4.158,8.826-5.62,13.543h-34.181v47.346h34.181
	c1.462,4.717,3.353,9.244,5.62,13.543l-24.177,24.177l33.478,33.479l24.177-24.177c4.298,2.268,8.826,4.159,13.543,5.62v34.181
	h47.346v-34.181c4.717-1.462,9.244-3.353,13.543-5.62l24.177,24.177l33.478-33.479l-24.177-24.177
	c2.267-4.298,4.159-8.826,5.62-13.543H384.842z M274.347,279.57c-19.051,0-34.495-15.444-34.495-34.495s15.444-34.495,34.495-34.495
	s34.495,15.444,34.495,34.495C308.842,264.126,293.398,279.57,274.347,279.57z"/>
<g>
	<rect x="55.44" y="56.991" style="fill:#FFD422;" width="20" height="38"/>
	<rect x="55.44" y="237" style="fill:#FFD422;" width="20" height="38"/>
	<rect x="55.44" y="147" style="fill:#FFD422;" width="20" height="38"/>
	<rect x="55.44" y="327" style="fill:#FFD422;" width="20" height="38"/>
	<rect x="55.44" y="417.01" style="fill:#FFD422;" width="20" height="38"/>
</g>
<g>
	<rect x="69.73" y="7.5" style="fill:#006DF0;" width="40" height="49.49"/>
	<rect x="69.73" y="455.01" style="fill:#006DF0;" width="40" height="49.49"/>
	<rect x="69.73" y="365" style="fill:#006DF0;" width="40" height="52.01"/>
	<rect x="69.73" y="185" style="fill:#006DF0;" width="40" height="52.01"/>
	<rect x="69.73" y="275" style="fill:#006DF0;" width="40" height="52.01"/>
	<rect x="69.73" y="94.99" style="fill:#006DF0;" width="40" height="52.01"/>
</g>
<g>
	<rect x="288.1" y="404.91" style="fill:#C70024;" width="20" height="37.693"/>
	<rect x="224.07" y="404.91" style="fill:#C70024;" width="20" height="37.693"/>
	<rect x="160.89" y="404.91" style="fill:#C70024;" width="20" height="37.693"/>
</g>
<g>
	<path style="fill:#FF5023;" d="M198.033,221.402h20c1.462-4.717,3.353-9.244,5.62-13.543l-24.177-24.177l23.478-23.478l-10-10
		l-33.478,33.478l24.177,24.177C201.386,212.157,199.495,216.684,198.033,221.402z"/>
	<path style="fill:#FF5023;" d="M257.132,174.38c4.298-2.268,8.826-4.159,13.543-5.62v-34.181h-20v33.344L257.132,174.38z"/>
	<path style="fill:#FF5023;" d="M328.842,245.074c0-19.051-15.444-34.495-34.495-34.495c-3.478,0-6.834,0.52-10,1.478
		c14.174,4.287,24.495,17.445,24.495,33.018s-10.322,28.73-24.495,33.018c3.166,0.958,6.522,1.478,10,1.478
		C313.398,279.57,328.842,264.126,328.842,245.074z"/>
	<path style="fill:#FF5023;" d="M318.02,168.76c4.717,1.462,9.244,3.353,13.543,5.62l14.177-14.177l-10-10l-17.72,17.72V168.76z"/>
	<path style="fill:#FF5023;" d="M331.562,315.768c-4.298,2.268-8.826,4.159-13.543,5.62v0.837l17.72,17.72l10-10L331.562,315.768z"
		/>
	<path style="fill:#FF5023;" d="M257.132,315.768l-6.457,6.457v33.344h20v-34.181C265.957,319.927,261.43,318.036,257.132,315.768z"
		/>
	<rect x="163.85" y="221.4" style="fill:#FF5023;" width="20" height="47.35"/>
	<path style="fill:#FF5023;" d="M199.476,306.467l24.177-24.177c-2.267-4.298-4.158-8.826-5.62-13.543h-20
		c1.462,4.717,3.353,9.244,5.62,13.543l-24.177,24.177l33.478,33.479l10-10L199.476,306.467z"/>
</g>
<g>
	<path style="fill:#1D1D1F;" d="M280.603,450.103h52.693V397.41h-52.693V450.103z M295.603,412.41h22.693v22.693h-22.693V412.41z"/>
	<path style="fill:#1D1D1F;" d="M216.573,450.103h52.693V397.41h-52.693V450.103z M231.573,412.41h22.693v22.693h-22.693V412.41z"/>
	<path style="fill:#1D1D1F;" d="M153.389,450.103h52.693V397.41h-52.693V450.103z M168.389,412.41h22.693v22.693h-22.693V412.41z"/>
	<path style="fill:#1D1D1F;" d="M62.235,49.491H47.937v53h14.326l-0.027,37.004H47.937v53h14.326L62.235,229.5H47.937v53h14.287
		v11.25l15,0.05v-11.3h42.963v-53H77.224v-37.005h42.963v-53h-0.003v-0.005h-42.96v-36.999h42.963v-53h-0.003V49.49h-42.96V15
		h371.84v119.92l14.95,0.05L464.063,0H62.273L62.235,49.491z M105.184,244.5v23H62.937v-23H105.184z M62.937,154.495h42.247v23
		H62.937V154.495z M105.184,64.491V87.49H62.937V64.491H105.184z"/>
	<polygon style="fill:#1D1D1F;" points="449.063,497 267.144,497 267.093,511.95 464.063,512 464.063,149.92 449.063,149.87 	"/>
	<path style="fill:#1D1D1F;" d="M77.224,462.51h42.91l0,0h0.053v-53H77.224v-37.004h42.963v-53h-0.003V319.5h-42.96v-10.75
		l-14.95-0.05l-0.021,10.805H47.937v53h14.326l-0.027,37.004H47.937v53h14.287v49.44l189.97,0.05v-15H77.224V462.51z
		 M62.937,334.505h42.247v23H62.937V334.505z M62.937,424.51h42.247v23H62.937V424.51z"/>
	<polygon style="fill:#1D1D1F;" points="89.304,488.75 198.633,488.8 198.633,473.79 89.354,473.79 	"/>
	<path style="fill:#1D1D1F;" d="M156.352,213.901v62.346h36.344c0.582,1.521,1.208,3.028,1.875,4.518l-25.702,25.702l44.085,44.086
		l25.702-25.703c1.49,0.667,2.997,1.293,4.518,1.875v36.344h62.346v-36.344c1.521-0.582,3.028-1.208,4.518-1.875l25.702,25.703
		l44.085-44.086l-25.702-25.702c0.668-1.49,1.293-2.997,1.875-4.518h36.344v-62.346h-36.344c-0.582-1.521-1.208-3.028-1.875-4.518
		l25.702-25.702l-44.085-44.085l-25.702,25.702c-1.489-0.668-2.997-1.293-4.518-1.875v-36.344h-62.346v36.344
		c-1.521,0.582-3.028,1.208-4.518,1.875l-25.702-25.702l-44.085,44.085l25.702,25.702c-0.668,1.49-1.293,2.997-1.875,4.518H156.352z
		 M190.083,183.682l22.872-22.872l22.784,22.785l4.892-2.581c3.931-2.073,8.057-3.786,12.264-5.089l5.28-1.636V142.08h32.346v32.208
		l5.28,1.637c4.207,1.304,8.333,3.016,12.263,5.089l4.892,2.581l22.785-22.785l22.872,22.872l-22.785,22.785l2.581,4.892
		c2.073,3.93,3.786,8.056,5.089,12.263l1.637,5.28h32.208v32.346h-32.209l-1.636,5.28c-1.304,4.207-3.016,8.333-5.089,12.264
		l-2.581,4.892l22.785,22.784l-22.872,22.872l-22.785-22.785l-4.892,2.581c-3.932,2.074-8.058,3.787-12.263,5.089l-5.28,1.636
		v32.209h-32.346v-32.21l-5.281-1.636c-4.204-1.303-8.33-3.015-12.263-5.089l-4.892-2.581l-22.784,22.785l-22.872-22.872
		l22.784-22.784l-2.58-4.892c-2.075-3.934-3.787-8.06-5.089-12.263l-1.636-5.281h-32.209v-32.346h32.209l1.636-5.28
		c1.303-4.204,3.015-8.33,5.089-12.263l2.58-4.892L190.083,183.682z"/>
	<path style="fill:#1D1D1F;" d="M274.347,287.07c23.156,0,41.995-18.839,41.995-41.996s-18.839-41.995-41.995-41.995
		s-41.996,18.839-41.996,41.995S251.191,287.07,274.347,287.07z M274.347,218.079c14.885,0,26.995,12.11,26.995,26.995
		s-12.11,26.996-26.995,26.996s-26.996-12.11-26.996-26.996S259.462,218.079,274.347,218.079z"/>
</g>
<g>
	<path style="fill:#FFFFFF;" d="M325.542,245.074c0,2.261-0.148,4.536-0.442,6.762l14.872,1.958c0.378-2.873,0.57-5.807,0.57-8.72
		c0-36.5-29.695-66.194-66.194-66.194v15C302.576,193.88,325.542,216.846,325.542,245.074z"/>
	<path style="fill:#FFFFFF;" d="M317.786,272.181l12.717,7.955c2.999-4.793,5.37-9.954,7.048-15.337l-14.32-4.465
		C321.935,264.491,320.103,268.477,317.786,272.181z"/>
	<path style="fill:#FFFFFF;" d="M302.697,287.71l8.318,12.481c4.689-3.125,8.972-6.844,12.728-11.052l-11.19-9.988
		C309.644,282.411,306.328,285.291,302.697,287.71z"/>
</g>
<g>
	<rect x="67.77" y="68.49" style="fill:#1D1D1F;" width="27.333" height="15"/>
	<rect x="67.77" y="158.5" style="fill:#1D1D1F;" width="13.667" height="15"/>
	<rect x="222.31" y="68.49" style="fill:#1D1D1F;" width="15" height="15"/>
	<rect x="147.31" y="68.49" style="fill:#1D1D1F;" width="15" height="15"/>
	<rect x="172.31" y="68.49" style="fill:#1D1D1F;" width="15" height="15"/>
	<rect x="197.31" y="68.49" style="fill:#1D1D1F;" width="15" height="15"/>
	<rect x="147.31" y="92.83" style="fill:#1D1D1F;" width="15" height="15"/>
	<rect x="222.31" y="92.83" style="fill:#1D1D1F;" width="15" height="15"/>
	<rect x="172.31" y="92.83" style="fill:#1D1D1F;" width="15" height="15"/>
	<rect x="197.31" y="92.83" style="fill:#1D1D1F;" width="15" height="15"/>
</g>
<g>
	<rect x="414.33" y="465.69" style="fill:#FFFFFF;" width="15" height="15"/>
	<rect x="414.33" y="440.69" style="fill:#FFFFFF;" width="15" height="15"/>
	<rect x="414.33" y="278.31" style="fill:#FFFFFF;" width="15" height="152.38"/>
	<rect x="277.39" y="33.5" style="fill:#FFFFFF;" width="101.59" height="15"/>
	<rect x="388.98" y="33.5" style="fill:#FFFFFF;" width="15" height="15"/>
	<rect x="413.98" y="33.5" style="fill:#FFFFFF;" width="15" height="15"/>
</g>
<g>
</g>
<g>
</g>
<g>
</g>
<g>
</g>
<g>
</g>
<g>
</g>
<g>
</g>
<g>
</g>
<g>
</g>
<g>
</g>
<g>
</g>
<g>
</g>
<g>
</g>
<g>
</g>
<g>
</g>
</svg>
